<?xml version="1.0" encoding="UTF-8"?>
<svg id="Layer_1" data-name="Layer 1" xmlns="http://www.w3.org/2000/svg" xmlns:xlink="http://www.w3.org/1999/xlink" version="1.1" viewBox="0 0 824.9 600">
  <defs>
    <style>
      .cls-1, .cls-2 {
        font-size: 20px;
      }

      .cls-1, .cls-2, .cls-3, .cls-4, .cls-5 {
        fill: #fff;
      }

      .cls-1, .cls-4, .cls-6, .cls-7 {
        font-family: ArialMT, Arial;
      }

      .cls-8 {
        fill: #0e001c;
      }

      .cls-8, .cls-9, .cls-10, .cls-11, .cls-12, .cls-13, .cls-5 {
        stroke-width: 0px;
      }

      .cls-14 {
        clip-path: url(#clippath);
      }

      .cls-9, .cls-15, .cls-16, .cls-17, .cls-18 {
        fill: none;
      }

      .cls-15, .cls-16 {
        stroke: #000;
      }

      .cls-15, .cls-16, .cls-17 {
        stroke-width: .7px;
      }

      .cls-15, .cls-18 {
        stroke-miterlimit: 10;
      }

      .cls-2 {
        font-family: Arial-ItalicMT, Arial;
        font-style: italic;
      }

      .cls-10 {
        fill: #18141d;
      }

      .cls-11 {
        fill: #000;
      }

      .cls-3 {
        font-family: Arial-BoldMT, Arial;
        font-size: 24.3px;
        font-weight: 700;
      }

      .cls-17 {
        stroke: #c9f;
      }

      .cls-12, .cls-7 {
        fill: #f93;
      }

      .cls-4 {
        font-size: 27.1px;
      }

      .cls-6 {
        fill: #e78d0d;
      }

      .cls-6, .cls-7 {
        font-size: 22.8px;
      }

      .cls-13 {
        fill: #c9f;
      }

      .cls-18 {
        stroke: #fff;
        stroke-width: 2.1px;
      }
    </style>
    <clipPath id="clippath">
      <rect class="cls-9" x="19.5" y="13.5" width="786" height="572.2"/>
    </clipPath>
  </defs>
  <g class="cls-14">
    <rect class="cls-8" x="20.6" y="14.6" width="784.8" height="570.8"/>
    <rect class="cls-16" x="20.6" y="14.6" width="784.8" height="570.8"/>
    <path class="cls-10" d="M68.1,479.1h211c.8,0,1.5,0,2.3.2.8.2,1.5.4,2.2.7.7.3,1.4.7,2,1.1.6.4,1.2.9,1.8,1.5s1,1.1,1.5,1.8.8,1.3,1.1,2c.3.7.5,1.5.7,2.2s.2,1.5.2,2.3v54.9c0,.8,0,1.5-.2,2.3-.2.8-.4,1.5-.7,2.2s-.7,1.4-1.1,2c-.4.6-.9,1.2-1.5,1.8-.5.5-1.1,1-1.8,1.5-.6.4-1.3.8-2,1.1-.7.3-1.5.5-2.2.7-.8.2-1.5.2-2.3.2H68.1c-.8,0-1.5,0-2.3-.2-.8-.2-1.5-.4-2.2-.7-.7-.3-1.4-.7-2-1.1-.6-.4-1.2-.9-1.8-1.5-.5-.5-1-1.1-1.5-1.8-.4-.6-.8-1.3-1.1-2-.3-.7-.5-1.5-.7-2.2-.2-.8-.2-1.5-.2-2.3v-54.9c0-.8,0-1.5.2-2.3.2-.8.4-1.5.7-2.2.3-.7.7-1.4,1.1-2,.4-.6.9-1.2,1.5-1.8.5-.5,1.1-1,1.8-1.5.6-.4,1.3-.8,2-1.1.7-.3,1.5-.5,2.2-.7.8-.2,1.5-.2,2.3-.2Z"/>
    <path class="cls-17" d="M68.1,479.1h211c.8,0,1.5,0,2.3.2.8.2,1.5.4,2.2.7.7.3,1.4.7,2,1.1.6.4,1.2.9,1.8,1.5s1,1.1,1.5,1.8.8,1.3,1.1,2c.3.7.5,1.5.7,2.2s.2,1.5.2,2.3v54.9c0,.8,0,1.5-.2,2.3-.2.8-.4,1.5-.7,2.2s-.7,1.4-1.1,2c-.4.6-.9,1.2-1.5,1.8-.5.5-1.1,1-1.8,1.5-.6.4-1.3.8-2,1.1-.7.3-1.5.5-2.2.7-.8.2-1.5.2-2.3.2H68.1c-.8,0-1.5,0-2.3-.2-.8-.2-1.5-.4-2.2-.7-.7-.3-1.4-.7-2-1.1-.6-.4-1.2-.9-1.8-1.5-.5-.5-1-1.1-1.5-1.8-.4-.6-.8-1.3-1.1-2-.3-.7-.5-1.5-.7-2.2-.2-.8-.2-1.5-.2-2.3v-54.9c0-.8,0-1.5.2-2.3.2-.8.4-1.5.7-2.2.3-.7.7-1.4,1.1-2,.4-.6.9-1.2,1.5-1.8.5-.5,1.1-1,1.8-1.5.6-.4,1.3-.8,2-1.1.7-.3,1.5-.5,2.2-.7.8-.2,1.5-.2,2.3-.2Z"/>
    <path class="cls-10" d="M69.1,480.5h209c.7,0,1.5,0,2.2.2.7.1,1.4.4,2.1.6.7.3,1.3.6,2,1,.6.4,1.2.9,1.7,1.4.5.5,1,1.1,1.4,1.7.4.6.8,1.3,1,2,.3.7.5,1.4.6,2.1.1.7.2,1.5.2,2.2v52.9c0,.7,0,1.5-.2,2.2s-.4,1.4-.6,2.1c-.3.7-.6,1.3-1,2-.4.6-.9,1.2-1.4,1.7-.5.5-1.1,1-1.7,1.4-.6.4-1.3.8-2,1-.7.3-1.4.5-2.1.6-.7.1-1.5.2-2.2.2H69.1c-.7,0-1.5,0-2.2-.2s-1.4-.4-2.1-.6c-.7-.3-1.3-.6-2-1-.6-.4-1.2-.9-1.7-1.4s-1-1.1-1.4-1.7-.8-1.3-1-2c-.3-.7-.5-1.4-.6-2.1-.1-.7-.2-1.5-.2-2.2v-52.9c0-.7,0-1.5.2-2.2.1-.7.4-1.4.6-2.1.3-.7.6-1.3,1-2s.9-1.2,1.4-1.7c.5-.5,1.1-1,1.7-1.4.6-.4,1.3-.8,2-1,.7-.3,1.4-.5,2.1-.6.7-.1,1.5-.2,2.2-.2Z"/>
    <path class="cls-17" d="M69.1,480.5h209c.7,0,1.5,0,2.2.2.7.1,1.4.4,2.1.6.7.3,1.3.6,2,1,.6.4,1.2.9,1.7,1.4.5.5,1,1.1,1.4,1.7.4.6.8,1.3,1,2,.3.7.5,1.4.6,2.1.1.7.2,1.5.2,2.2v52.9c0,.7,0,1.5-.2,2.2s-.4,1.4-.6,2.1c-.3.7-.6,1.3-1,2-.4.6-.9,1.2-1.4,1.7-.5.5-1.1,1-1.7,1.4-.6.4-1.3.8-2,1-.7.3-1.4.5-2.1.6-.7.1-1.5.2-2.2.2H69.1c-.7,0-1.5,0-2.2-.2s-1.4-.4-2.1-.6c-.7-.3-1.3-.6-2-1-.6-.4-1.2-.9-1.7-1.4s-1-1.1-1.4-1.7-.8-1.3-1-2c-.3-.7-.5-1.4-.6-2.1-.1-.7-.2-1.5-.2-2.2v-52.9c0-.7,0-1.5.2-2.2.1-.7.4-1.4.6-2.1.3-.7.6-1.3,1-2s.9-1.2,1.4-1.7c.5-.5,1.1-1,1.7-1.4.6-.4,1.3-.8,2-1,.7-.3,1.4-.5,2.1-.6.7-.1,1.5-.2,2.2-.2Z"/>
    <path class="cls-10" d="M68.1,151.6h211c.8,0,1.5,0,2.3.2.8.2,1.5.4,2.2.7.7.3,1.4.7,2,1.1.6.4,1.2.9,1.8,1.5.5.5,1,1.1,1.5,1.8.4.6.8,1.3,1.1,2,.3.7.5,1.5.7,2.2s.2,1.5.2,2.3v54.9c0,.8,0,1.5-.2,2.3-.2.8-.4,1.5-.7,2.2s-.7,1.4-1.1,2c-.4.6-.9,1.2-1.5,1.8s-1.1,1-1.8,1.5c-.6.4-1.3.8-2,1.1-.7.3-1.5.5-2.2.7-.8.2-1.5.2-2.3.2H68.1c-.8,0-1.5,0-2.3-.2s-1.5-.4-2.2-.7c-.7-.3-1.4-.7-2-1.1-.6-.4-1.2-.9-1.8-1.5-.5-.5-1-1.1-1.5-1.8-.4-.6-.8-1.3-1.1-2-.3-.7-.5-1.5-.7-2.2-.2-.8-.2-1.5-.2-2.3v-54.9c0-.8,0-1.5.2-2.3.2-.8.4-1.5.7-2.2.3-.7.7-1.4,1.1-2,.4-.6.9-1.2,1.5-1.8.5-.5,1.1-1,1.8-1.5.6-.4,1.3-.8,2-1.1.7-.3,1.5-.5,2.2-.7.8-.2,1.5-.2,2.3-.2Z"/>
    <path class="cls-17" d="M68.1,151.6h211c.8,0,1.5,0,2.3.2.8.2,1.5.4,2.2.7.7.3,1.4.7,2,1.1.6.4,1.2.9,1.8,1.5.5.5,1,1.1,1.5,1.8.4.6.8,1.3,1.1,2,.3.7.5,1.5.7,2.2s.2,1.5.2,2.3v54.9c0,.8,0,1.5-.2,2.3-.2.8-.4,1.5-.7,2.2s-.7,1.4-1.1,2c-.4.6-.9,1.2-1.5,1.8s-1.1,1-1.8,1.5c-.6.4-1.3.8-2,1.1-.7.3-1.5.5-2.2.7-.8.2-1.5.2-2.3.2H68.1c-.8,0-1.5,0-2.3-.2s-1.5-.4-2.2-.7c-.7-.3-1.4-.7-2-1.1-.6-.4-1.2-.9-1.8-1.5-.5-.5-1-1.1-1.5-1.8-.4-.6-.8-1.3-1.1-2-.3-.7-.5-1.5-.7-2.2-.2-.8-.2-1.5-.2-2.3v-54.9c0-.8,0-1.5.2-2.3.2-.8.4-1.5.7-2.2.3-.7.7-1.4,1.1-2,.4-.6.9-1.2,1.5-1.8.5-.5,1.1-1,1.8-1.5.6-.4,1.3-.8,2-1.1.7-.3,1.5-.5,2.2-.7.8-.2,1.5-.2,2.3-.2Z"/>
    <path class="cls-10" d="M69.1,153h209c.7,0,1.5,0,2.2.2.7.1,1.4.4,2.1.6.7.3,1.3.6,2,1,.6.4,1.2.9,1.7,1.4.5.5,1,1.1,1.4,1.7.4.6.8,1.3,1,2,.3.7.5,1.4.6,2.1s.2,1.5.2,2.2v52.9c0,.7,0,1.5-.2,2.2-.1.7-.4,1.4-.6,2.1s-.6,1.3-1,2c-.4.6-.9,1.2-1.4,1.7-.5.5-1.1,1-1.7,1.4-.6.4-1.3.8-2,1-.7.3-1.4.5-2.1.6-.7.1-1.5.2-2.2.2H69.1c-.7,0-1.5,0-2.2-.2s-1.4-.4-2.1-.6c-.7-.3-1.3-.6-2-1-.6-.4-1.2-.9-1.7-1.4s-1-1.1-1.4-1.7-.8-1.3-1-2c-.3-.7-.5-1.4-.6-2.1-.1-.7-.2-1.5-.2-2.2v-52.9c0-.7,0-1.5.2-2.2.1-.7.4-1.4.6-2.1.3-.7.6-1.3,1-2s.9-1.2,1.4-1.7c.5-.5,1.1-1,1.7-1.4.6-.4,1.3-.8,2-1,.7-.3,1.4-.5,2.1-.6.7-.1,1.5-.2,2.2-.2Z"/>
    <path class="cls-17" d="M69.1,153h209c.7,0,1.5,0,2.2.2.7.1,1.4.4,2.1.6.7.3,1.3.6,2,1,.6.4,1.2.9,1.7,1.4.5.5,1,1.1,1.4,1.7.4.6.8,1.3,1,2,.3.7.5,1.4.6,2.1s.2,1.5.2,2.2v52.9c0,.7,0,1.5-.2,2.2-.1.7-.4,1.4-.6,2.1s-.6,1.3-1,2c-.4.6-.9,1.2-1.4,1.7-.5.5-1.1,1-1.7,1.4-.6.4-1.3.8-2,1-.7.3-1.4.5-2.1.6-.7.1-1.5.2-2.2.2H69.1c-.7,0-1.5,0-2.2-.2s-1.4-.4-2.1-.6c-.7-.3-1.3-.6-2-1-.6-.4-1.2-.9-1.7-1.4s-1-1.1-1.4-1.7-.8-1.3-1-2c-.3-.7-.5-1.4-.6-2.1-.1-.7-.2-1.5-.2-2.2v-52.9c0-.7,0-1.5.2-2.2.1-.7.4-1.4.6-2.1.3-.7.6-1.3,1-2s.9-1.2,1.4-1.7c.5-.5,1.1-1,1.7-1.4.6-.4,1.3-.8,2-1,.7-.3,1.4-.5,2.1-.6.7-.1,1.5-.2,2.2-.2Z"/>
    <path class="cls-10" d="M68.1,369.9h211c.8,0,1.5,0,2.3.2.8.2,1.5.4,2.2.7.7.3,1.4.7,2,1.1.6.4,1.2.9,1.8,1.5.5.5,1,1.1,1.5,1.8.4.6.8,1.3,1.1,2,.3.7.5,1.5.7,2.2.2.8.2,1.5.2,2.3v54.9c0,.8,0,1.5-.2,2.3s-.4,1.5-.7,2.2c-.3.7-.7,1.4-1.1,2-.4.6-.9,1.2-1.5,1.8-.5.5-1.1,1-1.8,1.5-.6.4-1.3.8-2,1.1-.7.3-1.5.5-2.2.7-.8.2-1.5.2-2.3.2H68.1c-.8,0-1.5,0-2.3-.2s-1.5-.4-2.2-.7c-.7-.3-1.4-.7-2-1.1-.6-.4-1.2-.9-1.8-1.5-.5-.5-1-1.1-1.5-1.8-.4-.6-.8-1.3-1.1-2-.3-.7-.5-1.5-.7-2.2s-.2-1.5-.2-2.3v-54.9c0-.8,0-1.5.2-2.3.2-.8.4-1.5.7-2.2.3-.7.7-1.4,1.1-2,.4-.6.9-1.2,1.5-1.8.5-.5,1.1-1,1.8-1.5.6-.4,1.3-.8,2-1.1.7-.3,1.5-.5,2.2-.7.8-.2,1.5-.2,2.3-.2Z"/>
    <path class="cls-17" d="M68.1,369.9h211c.8,0,1.5,0,2.3.2.8.2,1.5.4,2.2.7.7.3,1.4.7,2,1.1.6.4,1.2.9,1.8,1.5.5.5,1,1.1,1.5,1.8.4.6.8,1.3,1.1,2,.3.7.5,1.5.7,2.2.2.8.2,1.5.2,2.3v54.9c0,.8,0,1.5-.2,2.3s-.4,1.5-.7,2.2c-.3.7-.7,1.4-1.1,2-.4.6-.9,1.2-1.5,1.8-.5.5-1.1,1-1.8,1.5-.6.4-1.3.8-2,1.1-.7.3-1.5.5-2.2.7-.8.2-1.5.2-2.3.2H68.1c-.8,0-1.5,0-2.3-.2s-1.5-.4-2.2-.7c-.7-.3-1.4-.7-2-1.1-.6-.4-1.2-.9-1.8-1.5-.5-.5-1-1.1-1.5-1.8-.4-.6-.8-1.3-1.1-2-.3-.7-.5-1.5-.7-2.2s-.2-1.5-.2-2.3v-54.9c0-.8,0-1.5.2-2.3.2-.8.4-1.5.7-2.2.3-.7.7-1.4,1.1-2,.4-.6.9-1.2,1.5-1.8.5-.5,1.1-1,1.8-1.5.6-.4,1.3-.8,2-1.1.7-.3,1.5-.5,2.2-.7.8-.2,1.5-.2,2.3-.2Z"/>
    <path class="cls-10" d="M69.1,371.3h209c.7,0,1.5,0,2.2.2.7.1,1.4.4,2.1.6.7.3,1.3.6,2,1,.6.4,1.2.9,1.7,1.4.5.5,1,1.1,1.4,1.7.4.6.8,1.3,1,2,.3.7.5,1.4.6,2.1.1.7.2,1.5.2,2.2v52.9c0,.7,0,1.5-.2,2.2-.1.7-.4,1.4-.6,2.1-.3.7-.6,1.3-1,2-.4.6-.9,1.2-1.4,1.7-.5.5-1.1,1-1.7,1.4-.6.4-1.3.8-2,1-.7.3-1.4.5-2.1.6-.7.1-1.5.2-2.2.2H69.1c-.7,0-1.5,0-2.2-.2-.7-.1-1.4-.4-2.1-.6-.7-.3-1.3-.6-2-1-.6-.4-1.2-.9-1.7-1.4-.5-.5-1-1.1-1.4-1.7-.4-.6-.8-1.3-1-2-.3-.7-.5-1.4-.6-2.1-.1-.7-.2-1.5-.2-2.2v-52.9c0-.7,0-1.5.2-2.2.1-.7.4-1.4.6-2.1.3-.7.6-1.3,1-2,.4-.6.9-1.2,1.4-1.7s1.1-1,1.7-1.4c.6-.4,1.3-.8,2-1,.7-.3,1.4-.5,2.1-.6.7-.1,1.5-.2,2.2-.2Z"/>
    <path class="cls-17" d="M69.1,371.3h209c.7,0,1.5,0,2.2.2.7.1,1.4.4,2.1.6.7.3,1.3.6,2,1,.6.4,1.2.9,1.7,1.4.5.5,1,1.1,1.4,1.7.4.6.8,1.3,1,2,.3.7.5,1.4.6,2.1.1.7.2,1.5.2,2.2v52.9c0,.7,0,1.5-.2,2.2-.1.7-.4,1.4-.6,2.1-.3.7-.6,1.3-1,2-.4.6-.9,1.2-1.4,1.7-.5.5-1.1,1-1.7,1.4-.6.4-1.3.8-2,1-.7.3-1.4.5-2.1.6-.7.1-1.5.2-2.2.2H69.1c-.7,0-1.5,0-2.2-.2-.7-.1-1.4-.4-2.1-.6-.7-.3-1.3-.6-2-1-.6-.4-1.2-.9-1.7-1.4-.5-.5-1-1.1-1.4-1.7-.4-.6-.8-1.3-1-2-.3-.7-.5-1.4-.6-2.1-.1-.7-.2-1.5-.2-2.2v-52.9c0-.7,0-1.5.2-2.2.1-.7.4-1.4.6-2.1.3-.7.6-1.3,1-2,.4-.6.9-1.2,1.4-1.7s1.1-1,1.7-1.4c.6-.4,1.3-.8,2-1,.7-.3,1.4-.5,2.1-.6.7-.1,1.5-.2,2.2-.2Z"/>
    <path class="cls-10" d="M68.1,42.4h211c.8,0,1.5,0,2.3.2.8.2,1.5.4,2.2.7.7.3,1.4.7,2,1.1.6.4,1.2.9,1.8,1.5s1,1.1,1.5,1.8.8,1.3,1.1,2,.5,1.5.7,2.2c.2.8.2,1.5.2,2.3v54.9c0,.8,0,1.5-.2,2.3s-.4,1.5-.7,2.2c-.3.7-.7,1.4-1.1,2-.4.6-.9,1.2-1.5,1.8-.5.5-1.1,1-1.8,1.5-.6.4-1.3.8-2,1.1-.7.3-1.5.5-2.2.7-.8.2-1.5.2-2.3.2H68.1c-.8,0-1.5,0-2.3-.2-.8-.2-1.5-.4-2.2-.7-.7-.3-1.4-.7-2-1.1-.6-.4-1.2-.9-1.8-1.5-.5-.5-1-1.1-1.5-1.8-.4-.6-.8-1.3-1.1-2-.3-.7-.5-1.5-.7-2.2s-.2-1.5-.2-2.3v-54.9c0-.8,0-1.5.2-2.3.2-.8.4-1.5.7-2.2.3-.7.7-1.4,1.1-2,.4-.6.9-1.2,1.5-1.8.5-.5,1.1-1,1.8-1.5.6-.4,1.3-.8,2-1.1.7-.3,1.5-.5,2.2-.7.8-.2,1.5-.2,2.3-.2Z"/>
    <path class="cls-17" d="M68.1,42.4h211c.8,0,1.5,0,2.3.2.8.2,1.5.4,2.2.7.7.3,1.4.7,2,1.1.6.4,1.2.9,1.8,1.5s1,1.1,1.5,1.8.8,1.3,1.1,2,.5,1.5.7,2.2c.2.8.2,1.5.2,2.3v54.9c0,.8,0,1.5-.2,2.3s-.4,1.5-.7,2.2c-.3.7-.7,1.4-1.1,2-.4.6-.9,1.2-1.5,1.8-.5.5-1.1,1-1.8,1.5-.6.4-1.3.8-2,1.1-.7.3-1.5.5-2.2.7-.8.2-1.5.2-2.3.2H68.1c-.8,0-1.5,0-2.3-.2-.8-.2-1.5-.4-2.2-.7-.7-.3-1.4-.7-2-1.1-.6-.4-1.2-.9-1.8-1.5-.5-.5-1-1.1-1.5-1.8-.4-.6-.8-1.3-1.1-2-.3-.7-.5-1.5-.7-2.2s-.2-1.5-.2-2.3v-54.9c0-.8,0-1.5.2-2.3.2-.8.4-1.5.7-2.2.3-.7.7-1.4,1.1-2,.4-.6.9-1.2,1.5-1.8.5-.5,1.1-1,1.8-1.5.6-.4,1.3-.8,2-1.1.7-.3,1.5-.5,2.2-.7.8-.2,1.5-.2,2.3-.2Z"/>
    <path class="cls-10" d="M69.1,43.9h209c.7,0,1.5,0,2.2.2.7.1,1.4.4,2.1.6.7.3,1.3.6,2,1,.6.4,1.2.9,1.7,1.4.5.5,1,1.1,1.4,1.7.4.6.8,1.3,1,2s.5,1.4.6,2.1.2,1.5.2,2.2v52.9c0,.7,0,1.5-.2,2.2s-.4,1.4-.6,2.1c-.3.7-.6,1.3-1,2-.4.6-.9,1.2-1.4,1.7-.5.5-1.1,1-1.7,1.4s-1.3.8-2,1c-.7.3-1.4.5-2.1.6-.7.1-1.5.2-2.2.2H69.1c-.7,0-1.5,0-2.2-.2-.7-.1-1.4-.4-2.1-.6-.7-.3-1.3-.6-2-1-.6-.4-1.2-.9-1.7-1.4-.5-.5-1-1.1-1.4-1.7-.4-.6-.8-1.3-1-2-.3-.7-.5-1.4-.6-2.1-.1-.7-.2-1.5-.2-2.2v-52.9c0-.7,0-1.5.2-2.2.1-.7.4-1.4.6-2.1.3-.7.6-1.3,1-2s.9-1.2,1.4-1.7c.5-.5,1.1-1,1.7-1.4.6-.4,1.3-.8,2-1,.7-.3,1.4-.5,2.1-.6.7-.1,1.5-.2,2.2-.2Z"/>
    <path class="cls-17" d="M69.1,43.9h209c.7,0,1.5,0,2.2.2.7.1,1.4.4,2.1.6.7.3,1.3.6,2,1,.6.4,1.2.9,1.7,1.4.5.5,1,1.1,1.4,1.7.4.6.8,1.3,1,2s.5,1.4.6,2.1.2,1.5.2,2.2v52.9c0,.7,0,1.5-.2,2.2s-.4,1.4-.6,2.1c-.3.7-.6,1.3-1,2-.4.6-.9,1.2-1.4,1.7-.5.5-1.1,1-1.7,1.4s-1.3.8-2,1c-.7.3-1.4.5-2.1.6-.7.1-1.5.2-2.2.2H69.1c-.7,0-1.5,0-2.2-.2-.7-.1-1.4-.4-2.1-.6-.7-.3-1.3-.6-2-1-.6-.4-1.2-.9-1.7-1.4-.5-.5-1-1.1-1.4-1.7-.4-.6-.8-1.3-1-2-.3-.7-.5-1.4-.6-2.1-.1-.7-.2-1.5-.2-2.2v-52.9c0-.7,0-1.5.2-2.2.1-.7.4-1.4.6-2.1.3-.7.6-1.3,1-2s.9-1.2,1.4-1.7c.5-.5,1.1-1,1.7-1.4.6-.4,1.3-.8,2-1,.7-.3,1.4-.5,2.1-.6.7-.1,1.5-.2,2.2-.2Z"/>
    <text class="cls-6" transform="translate(99.8 436.6)"><tspan x="0" y="0">equilib / scheil</tspan></text>
    <text class="cls-4" transform="translate(115 408.8)"><tspan x="0" y="0">Calculate</tspan></text>
    <text class="cls-6" transform="translate(68 547.2)"><tspan x="0" y="0">Result / ResultScheil</tspan></text>
    <text class="cls-4" transform="translate(93.1 520.1)"><tspan x="0" y="0">Post Process</tspan></text>
    <text class="cls-3" transform="translate(303.5 62.1)"><tspan x="0" y="0">Step 1</tspan></text>
    <text class="cls-3" transform="translate(376.3 62.1)"><tspan x="0" y="0"> </tspan></text>
    <text class="cls-3" transform="translate(303.5 170.5)"><tspan x="0" y="0">Step 2</tspan></text>
    <text class="cls-3" transform="translate(376.3 170.5)"><tspan x="0" y="0"> </tspan></text>
    <text class="cls-3" transform="translate(303.5 397.4)"><tspan x="0" y="0">Step 3</tspan></text>
    <text class="cls-3" transform="translate(303.5 511.5)"><tspan x="0" y="0">Step 4</tspan></text>
    <text class="cls-3" transform="translate(376.3 511.5)"><tspan x="0" y="0"> </tspan></text>
    <text class="cls-1" transform="translate(399.8 65.6)"><tspan x="0" y="0">Parse thermochemical database (set of</tspan></text>
    <text class="cls-1" transform="translate(399.8 89.9)"><tspan x="0" y="0">Gibbs energy description per each phase)</tspan></text>
    <text class="cls-1" transform="translate(399.8 113.4)"><tspan x="0" y="0">by </tspan></text>
    <text class="cls-2" transform="translate(426.5 113.4)"><tspan x="0" y="0">read_dat()</tspan></text>
    <text class="cls-1" transform="translate(518.6 113.4)"><tspan x="0" y="0" xml:space="preserve"> fucntion.</tspan></text>
    <polyline class="cls-15" points="591.4 364.2 591.4 378.5 582.5 378.5 582.5 374.5"/>
    <polygon class="cls-11" points="582.5 370.7 585 375.7 582.5 374.5 580 375.7 582.5 370.7"/>
    <polygon class="cls-15" points="582.5 370.7 585 375.7 582.5 374.5 580 375.7 582.5 370.7"/>
    <text class="cls-1" transform="translate(399.8 161.9)"><tspan x="0" y="0">Define a python dictionary of input</tspan></text>
    <text class="cls-1" transform="translate(399.8 186.2)"><tspan x="0" y="0">conditions which includes element name</tspan></text>
    <text class="cls-1" transform="translate(399.8 209.7)"><tspan x="0" y="0">and composition (N), temperature (T), and</tspan></text>
    <text class="cls-1" transform="translate(399.8 234)"><tspan x="0" y="0">pressure (P).</tspan></text>
    <text class="cls-1" transform="translate(515.3 234)"><tspan x="0" y="0"> </tspan></text>
    <text class="cls-1" transform="translate(399.8 257.5)"><tspan x="0" y="0">By default, all relavent phases in the</tspan></text>
    <text class="cls-1" transform="translate(399.8 281.8)"><tspan x="0" y="0">database will be considered. Optionally</tspan></text>
    <text class="cls-1" transform="translate(744.8 281.8)"><tspan x="0" y="0">,</tspan></text>
    <text class="cls-1" transform="translate(399.8 306.1)"><tspan x="0" y="0">users may pass a list of phases. </tspan></text>
    <text class="cls-1" transform="translate(689.2 306.1)"><tspan x="0" y="0">The list of</tspan></text>
    <text class="cls-1" transform="translate(399.8 329.6)"><tspan x="0" y="0">phases must be a subset of phases</tspan></text>
    <text class="cls-1" transform="translate(399.8 353.9)"><tspan x="0" y="0">obtained by </tspan></text>
    <text class="cls-2" transform="translate(508.7 353.9)"><tspan x="0" y="0">list_phases()</tspan></text>
    <text class="cls-1" transform="translate(621.9 353.9)"><tspan x="0" y="0"> </tspan></text>
    <text class="cls-1" transform="translate(627.5 353.9)"><tspan x="0" y="0">function.</tspan></text>
    <text class="cls-1" transform="translate(399.8 393.1)"><tspan x="0" y="0">Calculate phase equilibrium calculations</tspan></text>
    <text class="cls-1" transform="translate(755.1 393.1)"><tspan x="0" y="0"> </tspan></text>
    <text class="cls-1" transform="translate(399.8 417.4)"><tspan x="0" y="0">by using </tspan></text>
    <text class="cls-2" transform="translate(479.8 417.4)"><tspan x="0" y="0">equilib()</tspan></text>
    <text class="cls-1" transform="translate(550.8 417.4)"><tspan x="0" y="0" xml:space="preserve"> function or Scheil-</tspan></text>
    <text class="cls-1" transform="translate(399.8 440.9)"><tspan x="0" y="0">Gulliver cooling calculations by</tspan></text>
    <text class="cls-2" transform="translate(399.8 465.2)"><tspan x="0" y="0">scheil_cooling()</tspan></text>
    <text class="cls-1" transform="translate(538.6 465.2)"><tspan x="0" y="0" xml:space="preserve"> function.</tspan></text>
    <text class="cls-1" transform="translate(399.8 508.7)"><tspan x="0" y="0">Output is a Result or ResultScheil object,</tspan></text>
    <text class="cls-1" transform="translate(399.8 532.9)"><tspan x="0" y="0">which includes </tspan></text>
    <text class="cls-2" transform="translate(535.3 532.9)"><tspan x="0" y="0">.to_dict()</tspan></text>
    <text class="cls-1" transform="translate(613 532.9)"><tspan x="0" y="0" xml:space="preserve"> class method to</tspan></text>
    <text class="cls-1" transform="translate(399.8 556.5)"><tspan x="0" y="0">transform the data into a dictionary</tspan></text>
    <text class="cls-1" transform="translate(705.9 556.5)"><tspan x="0" y="0">.</tspan></text>
    <text class="cls-1" transform="translate(711.5 556.5)"><tspan x="0" y="0"> </tspan></text>
    <path class="cls-12" d="M779.4,134.8h1.4v1.4h-1.4v-1.4ZM773.7,134.8h1.4v1.4h-1.4v-1.4ZM768,134.8h1.4v1.4h-1.4v-1.4ZM762.2,134.8h1.4v1.4h-1.4v-1.4ZM756.5,134.8h1.4v1.4h-1.4v-1.4ZM750.8,134.8h1.4v1.4h-1.4v-1.4ZM745.1,134.8h1.4v1.4h-1.4v-1.4ZM739.4,134.8h1.4v1.4h-1.4v-1.4ZM733.7,134.8h1.4v1.4h-1.4v-1.4ZM728,134.8h1.4v1.4h-1.4v-1.4ZM722.3,134.8h1.4v1.4h-1.4v-1.4ZM716.6,134.8h1.4v1.4h-1.4v-1.4ZM710.9,134.8h1.4v1.4h-1.4v-1.4ZM705.2,134.8h1.4v1.4h-1.4v-1.4ZM699.5,134.8h1.4v1.4h-1.4v-1.4ZM693.8,134.8h1.4v1.4h-1.4v-1.4ZM688,134.8h1.4v1.4h-1.4v-1.4ZM682.3,134.8h1.4v1.4h-1.4v-1.4ZM676.6,134.8h1.4v1.4h-1.4v-1.4ZM670.9,134.8h1.4v1.4h-1.4v-1.4ZM665.2,134.8h1.4v1.4h-1.4v-1.4ZM659.5,134.8h1.4v1.4h-1.4v-1.4ZM653.8,134.8h1.4v1.4h-1.4v-1.4ZM648.1,134.8h1.4v1.4h-1.4v-1.4ZM642.4,134.8h1.4v1.4h-1.4v-1.4ZM636.7,134.8h1.4v1.4h-1.4v-1.4ZM631,134.8h1.4v1.4h-1.4v-1.4ZM625.3,134.8h1.4v1.4h-1.4v-1.4ZM619.6,134.8h1.4v1.4h-1.4v-1.4ZM613.8,134.8h1.4v1.4h-1.4v-1.4ZM608.1,134.8h1.4v1.4h-1.4v-1.4ZM602.4,134.8h1.4v1.4h-1.4v-1.4ZM596.7,134.8h1.4v1.4h-1.4v-1.4ZM591,134.8h1.4v1.4h-1.4v-1.4ZM585.3,134.8h1.4v1.4h-1.4v-1.4ZM579.6,134.8h1.4v1.4h-1.4v-1.4ZM573.9,134.8h1.4v1.4h-1.4v-1.4ZM568.2,134.8h1.4v1.4h-1.4v-1.4ZM562.5,134.8h1.4v1.4h-1.4v-1.4ZM556.8,134.8h1.4v1.4h-1.4v-1.4ZM551.1,134.8h1.4v1.4h-1.4v-1.4ZM545.4,134.8h1.4v1.4h-1.4v-1.4ZM539.6,134.8h1.4v1.4h-1.4v-1.4ZM533.9,134.8h1.4v1.4h-1.4v-1.4ZM528.2,134.8h1.4v1.4h-1.4v-1.4ZM522.5,134.8h1.4v1.4h-1.4v-1.4ZM516.8,134.8h1.4v1.4h-1.4v-1.4ZM511.1,134.8h1.4v1.4h-1.4v-1.4ZM505.4,134.8h1.4v1.4h-1.4v-1.4ZM499.7,134.8h1.4v1.4h-1.4v-1.4ZM494,134.8h1.4v1.4h-1.4v-1.4ZM488.3,134.8h1.4v1.4h-1.4v-1.4ZM482.6,134.8h1.4v1.4h-1.4v-1.4ZM476.9,134.8h1.4v1.4h-1.4v-1.4ZM471.2,134.8h1.4v1.4h-1.4v-1.4ZM465.4,134.8h1.4v1.4h-1.4v-1.4ZM459.7,134.8h1.4v1.4h-1.4v-1.4ZM454,134.8h1.4v1.4h-1.4v-1.4ZM448.3,134.8h1.4v1.4h-1.4v-1.4ZM442.6,134.8h1.4v1.4h-1.4v-1.4ZM436.9,134.8h1.4v1.4h-1.4v-1.4ZM431.2,134.8h1.4v1.4h-1.4v-1.4ZM425.5,134.8h1.4v1.4h-1.4v-1.4ZM419.8,134.8h1.4v1.4h-1.4v-1.4ZM414.1,134.8h1.4v1.4h-1.4v-1.4ZM408.4,134.8h1.4v1.4h-1.4v-1.4ZM402.7,134.8h1.4v1.4h-1.4v-1.4ZM397,134.8h1.4v1.4h-1.4v-1.4ZM391.2,134.8h1.4v1.4h-1.4v-1.4ZM385.5,134.8h1.4v1.4h-1.4v-1.4ZM379.8,134.8h1.4v1.4h-1.4v-1.4ZM374.1,134.8h1.4v1.4h-1.4v-1.4ZM368.4,134.8h1.4v1.4h-1.4v-1.4ZM362.7,134.8h1.4v1.4h-1.4v-1.4ZM357,134.8h1.4v1.4h-1.4v-1.4ZM351.3,134.8h1.4v1.4h-1.4v-1.4ZM345.6,134.8h1.4v1.4h-1.4v-1.4ZM339.9,134.8h1.4v1.4h-1.4v-1.4ZM334.2,134.8h1.4v1.4h-1.4v-1.4ZM328.5,134.8h1.4v1.4h-1.4v-1.4ZM322.8,134.8h1.4v1.4h-1.4v-1.4ZM317,134.8h1.4v1.4h-1.4v-1.4ZM311.3,134.8h1.4v1.4h-1.4v-1.4ZM305.6,134.8h1.4v1.4h-1.4v-1.4Z"/>
    <line class="cls-15" x1="409.4" y1="449.5" x2="441.9" y2="417"/>
    <polygon class="cls-11" points="444.6 414.3 442.8 419.6 441.9 417 439.2 416.1 444.6 414.3"/>
    <polygon class="cls-15" points="444.6 414.3 442.8 419.6 441.9 417 439.2 416.1 444.6 414.3"/>
    <line class="cls-18" x1="173.2" y1="120.9" x2="173.3" y2="143"/>
    <polygon class="cls-5" points="173.3 147.8 170.1 141.4 173.3 143 176.5 141.3 173.3 147.8"/>
    <polygon class="cls-18" points="173.3 147.8 170.1 141.4 173.3 143 176.5 141.3 173.3 147.8"/>
    <text class="cls-6" transform="translate(137.7 214.7)"><tspan x="0" y="0">N, P</tspan></text>
    <text class="cls-6" transform="translate(179.1 214.7)"><tspan x="0" y="0">, </tspan></text>
    <text class="cls-6" transform="translate(191.4 214.7)"><tspan x="0" y="0">T</tspan></text>
    <text class="cls-4" transform="translate(73.2 186.9)"><tspan x="0" y="0">Input Conditions</tspan></text>
    <text class="cls-7" transform="translate(128.2 104.1)"><tspan x="0" y="0">read_dat</tspan></text>
    <text class="cls-4" transform="translate(75.7 76.3)"><tspan x="0" y="0">Parse Database</tspan></text>
    <line class="cls-18" x1="118.3" y1="230.1" x2="118.3" y2="252.1"/>
    <polygon class="cls-5" points="118.3 256.9 115.1 250.5 118.3 252.1 121.5 250.5 118.3 256.9"/>
    <polygon class="cls-18" points="118.3 256.9 115.1 250.5 118.3 252.1 121.5 250.5 118.3 256.9"/>
    <line class="cls-18" x1="117.5" y1="340.7" x2="117.6" y2="362.7"/>
    <polygon class="cls-5" points="117.6 367.5 114.4 361.1 117.6 362.7 120.8 361.1 117.6 367.5"/>
    <polygon class="cls-18" points="117.6 367.5 114.4 361.1 117.6 362.7 120.8 361.1 117.6 367.5"/>
    <line class="cls-18" x1="173.2" y1="449.8" x2="173.3" y2="471.9"/>
    <polygon class="cls-5" points="173.3 476.7 170.1 470.3 173.3 471.9 176.5 470.2 173.3 476.7"/>
    <polygon class="cls-18" points="173.3 476.7 170.1 470.3 173.3 471.9 176.5 470.2 173.3 476.7"/>
    <line class="cls-18" x1="234.6" y1="230.1" x2="234.6" y2="362"/>
    <polygon class="cls-5" points="234.6 366.8 231.4 360.4 234.6 362 237.9 360.4 234.6 366.8"/>
    <polygon class="cls-18" points="234.6 366.8 231.4 360.4 234.6 362 237.9 360.4 234.6 366.8"/>
    <path class="cls-10" d="M68.1,260.7h211c.8,0,1.5,0,2.3.2.8.2,1.5.4,2.2.7.7.3,1.4.7,2,1.1.6.4,1.2.9,1.8,1.5.5.5,1,1.1,1.5,1.8.4.6.8,1.3,1.1,2,.3.7.5,1.5.7,2.2.2.8.2,1.5.2,2.3v54.9c0,.8,0,1.5-.2,2.3s-.4,1.5-.7,2.2c-.3.7-.7,1.4-1.1,2-.4.6-.9,1.2-1.5,1.8s-1.1,1-1.8,1.5c-.6.4-1.3.8-2,1.1-.7.3-1.5.5-2.2.7-.8.2-1.5.2-2.3.2H68.1c-.8,0-1.5,0-2.3-.2-.8-.2-1.5-.4-2.2-.7-.7-.3-1.4-.7-2-1.1-.6-.4-1.2-.9-1.8-1.5-.5-.5-1-1.1-1.5-1.8-.4-.6-.8-1.3-1.1-2-.3-.7-.5-1.5-.7-2.2s-.2-1.5-.2-2.3v-54.9c0-.8,0-1.5.2-2.3.2-.8.4-1.5.7-2.2.3-.7.7-1.4,1.1-2,.4-.6.9-1.2,1.5-1.8.5-.5,1.1-1,1.8-1.5.6-.4,1.3-.8,2-1.1.7-.3,1.5-.5,2.2-.7.8-.2,1.5-.2,2.3-.2Z"/>
    <path class="cls-13" d="M66.3,260.5c.6,0,1.2-.1,1.8-.1h2.1v.7h-2.1c-.6,0-1.1,0-1.7.1v-.7ZM62.1,262c.6-.4,1.3-.7,2-.9l.2.7c-.7.2-1.3.5-1.9.9l-.4-.6ZM58.7,264.8c.5-.6,1-1.1,1.6-1.6l.5.5c-.5.5-1,1-1.5,1.5l-.6-.5ZM56.5,268.7c.2-.7.5-1.4.9-2l.6.3c-.3.6-.6,1.3-.8,1.9l-.7-.2ZM55.9,273.1v-.5c0-.5,0-1.1.1-1.6h.7c0,.6,0,1.1,0,1.6v.5h-.7ZM55.9,277.3v-2.1h.7v2.1h-.7ZM55.9,281.6v-2.1h.7v2.1h-.7ZM55.9,285.9v-2.1h.7v2.1h-.7ZM55.9,290.2v-2.1h.7v2.1h-.7ZM55.9,294.5v-2.1h.7v2.1h-.7ZM55.9,298.7v-2.1h.7v2.1h-.7ZM55.9,303v-2.1h.7v2.1h-.7ZM55.9,307.3v-2.1h.7v2.1h-.7ZM55.9,311.6v-2.1h.7v2.1h-.7ZM55.9,315.9v-2.1h.7v2.1h-.7ZM55.9,320.1v-2.1h.7v2.1h-.7ZM55.9,324.4v-2.1h.7v2.1h-.7ZM56,328.7c0-.4,0-.8,0-1.2v-.9h.7v.9c0,.4,0,.8,0,1.2h-.7ZM57.2,333c-.3-.7-.6-1.4-.8-2.1l.7-.2c.2.7.5,1.3.8,2l-.6.3ZM60,336.5c-.6-.5-1.1-1.1-1.5-1.6l.6-.4c.4.6.9,1.1,1.4,1.6l-.5.5ZM63.7,338.8c-.7-.3-1.3-.6-2-1l.4-.6c.6.4,1.2.7,1.9.9l-.3.7ZM68.1,339.6h0c-.7,0-1.4,0-2.1-.2v-.7c.8.1,1.5.2,2.1.2h0v.7ZM72.3,339.6h-2.1v-.7h2.1v.7ZM76.6,339.6h-2.1v-.7h2.1v.7ZM80.9,339.6h-2.1v-.7h2.1v.7ZM85.2,339.6h-2.1v-.7h2.1v.7ZM89.5,339.6h-2.1v-.7h2.1v.7ZM93.7,339.6h-2.1v-.7h2.1v.7ZM98,339.6h-2.1v-.7h2.1v.7ZM102.3,339.6h-2.1v-.7h2.1v.7ZM106.6,339.6h-2.1v-.7h2.1v.7ZM110.9,339.6h-2.1v-.7h2.1v.7ZM115.1,339.6h-2.1v-.7h2.1v.7ZM119.4,339.6h-2.1v-.7h2.1v.7ZM123.7,339.6h-2.1v-.7h2.1v.7ZM128,339.6h-2.1v-.7h2.1v.7ZM132.3,339.6h-2.1v-.7h2.1v.7ZM136.5,339.6h-2.1v-.7h2.1v.7ZM140.8,339.6h-2.1v-.7h2.1v.7ZM145.1,339.6h-2.1v-.7h2.1v.7ZM149.4,339.6h-2.1v-.7h2.1v.7ZM153.7,339.6h-2.1v-.7h2.1v.7ZM158,339.6h-2.1v-.7h2.1v.7ZM162.2,339.6h-2.1v-.7h2.1v.7ZM166.5,339.6h-2.1v-.7h2.1v.7ZM170.8,339.6h-2.1v-.7h2.1v.7ZM175.1,339.6h-2.1v-.7h2.1v.7ZM179.4,339.6h-2.1v-.7h2.1v.7ZM183.6,339.6h-2.1v-.7h2.1v.7ZM187.9,339.6h-2.1v-.7h2.1v.7ZM192.2,339.6h-2.1v-.7h2.1v.7ZM196.5,339.6h-2.1v-.7h2.1v.7ZM200.8,339.6h-2.1v-.7h2.1v.7ZM205,339.6h-2.1v-.7h2.1v.7ZM209.3,339.6h-2.1v-.7h2.1v.7ZM213.6,339.6h-2.1v-.7h2.1v.7ZM217.9,339.6h-2.1v-.7h2.1v.7ZM222.2,339.6h-2.1v-.7h2.1v.7ZM226.4,339.6h-2.1v-.7h2.1v.7ZM230.7,339.6h-2.1v-.7h2.1v.7ZM235,339.6h-2.1v-.7h2.1v.7ZM239.3,339.6h-2.1v-.7h2.1v.7ZM243.6,339.6h-2.1v-.7h2.1v.7ZM247.8,339.6h-2.1v-.7h2.1v.7ZM252.1,339.6h-2.1v-.7h2.1v.7ZM256.4,339.6h-2.1v-.7h2.1v.7ZM260.7,339.6h-2.1v-.7h2.1v.7ZM265,339.6h-2.1v-.7h2.1v.7ZM269.3,339.6h-2.1v-.7h2.1v.7ZM273.5,339.6h-2.1v-.7h2.1v.7ZM277.8,339.6h-2.1v-.7h2.1v.7ZM282.1,339.2c-.7.2-1.4.3-2.2.4v-.7c.6,0,1.3-.2,2-.3l.2.7ZM286.1,337.3c-.6.4-1.2.8-1.9,1.1l-.3-.6c.6-.3,1.2-.6,1.8-1.1l.4.6ZM289.2,334.1c-.4.6-.9,1.2-1.4,1.8l-.5-.5c.5-.5.9-1.1,1.3-1.7l.6.4ZM290.9,330c-.2.7-.4,1.5-.7,2.2l-.7-.3c.3-.7.5-1.3.6-2h.7ZM291.2,325.7v1.8c0,.1,0,.2,0,.3h-.7c0-.1,0-.2,0-.3v-1.8h.7ZM291.2,321.4v2.1h-.7v-2.1h.7ZM291.2,317.1v2.1h-.7v-2.1h.7ZM291.2,312.8v2.1h-.7v-2.1h.7ZM291.2,308.5v2.1h-.7v-2.1h.7ZM291.2,304.3v2.1h-.7v-2.1h.7ZM291.2,300v2.1h-.7v-2.1h.7ZM291.2,295.7v2.1h-.7v-2.1h.7ZM291.2,291.4v2.1h-.7v-2.1h.7ZM291.2,287.1v2.1h-.7v-2.1h.7ZM291.2,282.9v2.1h-.7v-2.1h.7ZM291.2,278.6v2.1h-.7v-2.1h.7ZM291.2,274.3v2.1h-.7v-2.1h.7ZM290.9,270c.2.7.2,1.4.3,2.2h-.7c0-.7-.1-1.3-.2-2h.7ZM289.2,265.9c.4.6.7,1.3,1,1.9l-.7.3c-.3-.6-.6-1.2-1-1.8l.6-.4ZM286.1,262.7c.6.4,1.2.9,1.7,1.5l-.5.5c-.5-.5-1-1-1.6-1.4l.4-.6ZM282.1,260.8c.7.2,1.4.4,2.1.8l-.3.6c-.6-.3-1.3-.5-2-.7l.2-.7ZM277.8,260.4h1.2c.3,0,.6,0,.9,0v.7c-.3,0-.6,0-.9,0h-1.2v-.7ZM273.5,260.4h2.1v.7h-2.1v-.7ZM269.2,260.4h2.1v.7h-2.1v-.7ZM265,260.4h2.1v.7h-2.1v-.7ZM260.7,260.4h2.1v.7h-2.1v-.7ZM256.4,260.4h2.1v.7h-2.1v-.7ZM252.1,260.4h2.1v.7h-2.1v-.7ZM247.8,260.4h2.1v.7h-2.1v-.7ZM243.6,260.4h2.1v.7h-2.1v-.7ZM239.3,260.4h2.1v.7h-2.1v-.7ZM235,260.4h2.1v.7h-2.1v-.7ZM230.7,260.4h2.1v.7h-2.1v-.7ZM226.4,260.4h2.1v.7h-2.1v-.7ZM222.2,260.4h2.1v.7h-2.1v-.7ZM217.9,260.4h2.1v.7h-2.1v-.7ZM213.6,260.4h2.1v.7h-2.1v-.7ZM209.3,260.4h2.1v.7h-2.1v-.7ZM205,260.4h2.1v.7h-2.1v-.7ZM200.8,260.4h2.1v.7h-2.1v-.7ZM196.5,260.4h2.1v.7h-2.1v-.7ZM192.2,260.4h2.1v.7h-2.1v-.7ZM187.9,260.4h2.1v.7h-2.1v-.7ZM183.6,260.4h2.1v.7h-2.1v-.7ZM179.4,260.4h2.1v.7h-2.1v-.7ZM175.1,260.4h2.1v.7h-2.1v-.7ZM170.8,260.4h2.1v.7h-2.1v-.7ZM166.5,260.4h2.1v.7h-2.1v-.7ZM162.2,260.4h2.1v.7h-2.1v-.7ZM157.9,260.4h2.1v.7h-2.1v-.7ZM153.7,260.4h2.1v.7h-2.1v-.7ZM149.4,260.4h2.1v.7h-2.1v-.7ZM145.1,260.4h2.1v.7h-2.1v-.7ZM140.8,260.4h2.1v.7h-2.1v-.7ZM136.5,260.4h2.1v.7h-2.1v-.7ZM132.3,260.4h2.1v.7h-2.1v-.7ZM128,260.4h2.1v.7h-2.1v-.7ZM123.7,260.4h2.1v.7h-2.1v-.7ZM119.4,260.4h2.1v.7h-2.1v-.7ZM115.1,260.4h2.1v.7h-2.1v-.7ZM110.9,260.4h2.1v.7h-2.1v-.7ZM106.6,260.4h2.1v.7h-2.1v-.7ZM102.3,260.4h2.1v.7h-2.1v-.7ZM98,260.4h2.1v.7h-2.1v-.7ZM93.7,260.4h2.1v.7h-2.1v-.7ZM89.5,260.4h2.1v.7h-2.1v-.7ZM85.2,260.4h2.1v.7h-2.1v-.7ZM80.9,260.4h2.1v.7h-2.1v-.7ZM76.6,260.4h2.1v.7h-2.1v-.7ZM72.3,260.4h2.1v.7h-2.1v-.7Z"/>
    <text class="cls-4" transform="translate(75.8 298.2)"><tspan x="0" y="0">Phase selection</tspan></text>
    <text class="cls-6" transform="translate(114.4 325.3)"><tspan x="0" y="0">list_phases</tspan></text>
    <path class="cls-12" d="M782.6,478h1.4v1.4h-1.4v-1.4ZM776.9,478h1.4v1.4h-1.4v-1.4ZM771.2,478h1.4v1.4h-1.4v-1.4ZM765.5,478h1.4v1.4h-1.4v-1.4ZM759.7,478h1.4v1.4h-1.4v-1.4ZM754,478h1.4v1.4h-1.4v-1.4ZM748.3,478h1.4v1.4h-1.4v-1.4ZM742.6,478h1.4v1.4h-1.4v-1.4ZM736.9,478h1.4v1.4h-1.4v-1.4ZM731.2,478h1.4v1.4h-1.4v-1.4ZM725.5,478h1.4v1.4h-1.4v-1.4ZM719.8,478h1.4v1.4h-1.4v-1.4ZM714.1,478h1.4v1.4h-1.4v-1.4ZM708.4,478h1.4v1.4h-1.4v-1.4ZM702.7,478h1.4v1.4h-1.4v-1.4ZM697,478h1.4v1.4h-1.4v-1.4ZM691.3,478h1.4v1.4h-1.4v-1.4ZM685.5,478h1.4v1.4h-1.4v-1.4ZM679.8,478h1.4v1.4h-1.4v-1.4ZM674.1,478h1.4v1.4h-1.4v-1.4ZM668.4,478h1.4v1.4h-1.4v-1.4ZM662.7,478h1.4v1.4h-1.4v-1.4ZM657,478h1.4v1.4h-1.4v-1.4ZM651.3,478h1.4v1.4h-1.4v-1.4ZM645.6,478h1.4v1.4h-1.4v-1.4ZM639.9,478h1.4v1.4h-1.4v-1.4ZM634.2,478h1.4v1.4h-1.4v-1.4ZM628.5,478h1.4v1.4h-1.4v-1.4ZM622.8,478h1.4v1.4h-1.4v-1.4ZM617.1,478h1.4v1.4h-1.4v-1.4ZM611.3,478h1.4v1.4h-1.4v-1.4ZM605.6,478h1.4v1.4h-1.4v-1.4ZM599.9,478h1.4v1.4h-1.4v-1.4ZM594.2,478h1.4v1.4h-1.4v-1.4ZM588.5,478h1.4v1.4h-1.4v-1.4ZM582.8,478h1.4v1.4h-1.4v-1.4ZM577.1,478h1.4v1.4h-1.4v-1.4ZM571.4,478h1.4v1.4h-1.4v-1.4ZM565.7,478h1.4v1.4h-1.4v-1.4ZM560,478h1.4v1.4h-1.4v-1.4ZM554.3,478h1.4v1.4h-1.4v-1.4ZM548.6,478h1.4v1.4h-1.4v-1.4ZM542.9,478h1.4v1.4h-1.4v-1.4ZM537.1,478h1.4v1.4h-1.4v-1.4ZM531.4,478h1.4v1.4h-1.4v-1.4ZM525.7,478h1.4v1.4h-1.4v-1.4ZM520,478h1.4v1.4h-1.4v-1.4ZM514.3,478h1.4v1.4h-1.4v-1.4ZM508.6,478h1.4v1.4h-1.4v-1.4ZM502.9,478h1.4v1.4h-1.4v-1.4ZM497.2,478h1.4v1.4h-1.4v-1.4ZM491.5,478h1.4v1.4h-1.4v-1.4ZM485.8,478h1.4v1.4h-1.4v-1.4ZM480.1,478h1.4v1.4h-1.4v-1.4ZM474.4,478h1.4v1.4h-1.4v-1.4ZM468.7,478h1.4v1.4h-1.4v-1.4ZM463,478h1.4v1.4h-1.4v-1.4ZM457.2,478h1.4v1.4h-1.4v-1.4ZM451.5,478h1.4v1.4h-1.4v-1.4ZM445.8,478h1.4v1.4h-1.4v-1.4ZM440.1,478h1.4v1.4h-1.4v-1.4ZM434.4,478h1.4v1.4h-1.4v-1.4ZM428.7,478h1.4v1.4h-1.4v-1.4ZM423,478h1.4v1.4h-1.4v-1.4ZM417.3,478h1.4v1.4h-1.4v-1.4ZM411.6,478h1.4v1.4h-1.4v-1.4ZM405.9,478h1.4v1.4h-1.4v-1.4ZM400.2,478h1.4v1.4h-1.4v-1.4ZM394.5,478h1.4v1.4h-1.4v-1.4ZM388.8,478h1.4v1.4h-1.4v-1.4ZM383,478h1.4v1.4h-1.4v-1.4ZM377.3,478h1.4v1.4h-1.4v-1.4ZM371.6,478h1.4v1.4h-1.4v-1.4ZM365.9,478h1.4v1.4h-1.4v-1.4ZM360.2,478h1.4v1.4h-1.4v-1.4ZM354.5,478h1.4v1.4h-1.4v-1.4ZM348.8,478h1.4v1.4h-1.4v-1.4ZM343.1,478h1.4v1.4h-1.4v-1.4ZM337.4,478h1.4v1.4h-1.4v-1.4ZM331.7,478h1.4v1.4h-1.4v-1.4ZM326,478h1.4v1.4h-1.4v-1.4ZM320.3,478h1.4v1.4h-1.4v-1.4ZM314.6,478h1.4v1.4h-1.4v-1.4ZM308.8,478h1.4v1.4h-1.4v-1.4Z"/>
    <path class="cls-12" d="M779.4,363.1h1.4v1.4h-1.4v-1.4ZM773.7,363.1h1.4v1.4h-1.4v-1.4ZM768,363.1h1.4v1.4h-1.4v-1.4ZM762.2,363.1h1.4v1.4h-1.4v-1.4ZM756.5,363.1h1.4v1.4h-1.4v-1.4ZM750.8,363.1h1.4v1.4h-1.4v-1.4ZM745.1,363.1h1.4v1.4h-1.4v-1.4ZM739.4,363.1h1.4v1.4h-1.4v-1.4ZM733.7,363.1h1.4v1.4h-1.4v-1.4ZM728,363.1h1.4v1.4h-1.4v-1.4ZM722.3,363.1h1.4v1.4h-1.4v-1.4ZM716.6,363.1h1.4v1.4h-1.4v-1.4ZM710.9,363.1h1.4v1.4h-1.4v-1.4ZM705.2,363.1h1.4v1.4h-1.4v-1.4ZM699.5,363.1h1.4v1.4h-1.4v-1.4ZM693.8,363.1h1.4v1.4h-1.4v-1.4ZM688,363.1h1.4v1.4h-1.4v-1.4ZM682.3,363.1h1.4v1.4h-1.4v-1.4ZM676.6,363.1h1.4v1.4h-1.4v-1.4ZM670.9,363.1h1.4v1.4h-1.4v-1.4ZM665.2,363.1h1.4v1.4h-1.4v-1.4ZM659.5,363.1h1.4v1.4h-1.4v-1.4ZM653.8,363.1h1.4v1.4h-1.4v-1.4ZM648.1,363.1h1.4v1.4h-1.4v-1.4ZM642.4,363.1h1.4v1.4h-1.4v-1.4ZM636.7,363.1h1.4v1.4h-1.4v-1.4ZM631,363.1h1.4v1.4h-1.4v-1.4ZM625.3,363.1h1.4v1.4h-1.4v-1.4ZM619.6,363.1h1.4v1.4h-1.4v-1.4ZM613.8,363.1h1.4v1.4h-1.4v-1.4ZM608.1,363.1h1.4v1.4h-1.4v-1.4ZM602.4,363.1h1.4v1.4h-1.4v-1.4ZM596.7,363.1h1.4v1.4h-1.4v-1.4ZM591,363.1h1.4v1.4h-1.4v-1.4ZM585.3,363.1h1.4v1.4h-1.4v-1.4ZM579.6,363.1h1.4v1.4h-1.4v-1.4ZM573.9,363.1h1.4v1.4h-1.4v-1.4ZM568.2,363.1h1.4v1.4h-1.4v-1.4ZM562.5,363.1h1.4v1.4h-1.4v-1.4ZM556.8,363.1h1.4v1.4h-1.4v-1.4ZM551.1,363.1h1.4v1.4h-1.4v-1.4ZM545.4,363.1h1.4v1.4h-1.4v-1.4ZM539.6,363.1h1.4v1.4h-1.4v-1.4ZM533.9,363.1h1.4v1.4h-1.4v-1.4ZM528.2,363.1h1.4v1.4h-1.4v-1.4ZM522.5,363.1h1.4v1.4h-1.4v-1.4ZM516.8,363.1h1.4v1.4h-1.4v-1.4ZM511.1,363.1h1.4v1.4h-1.4v-1.4ZM505.4,363.1h1.4v1.4h-1.4v-1.4ZM499.7,363.1h1.4v1.4h-1.4v-1.4ZM494,363.1h1.4v1.4h-1.4v-1.4ZM488.3,363.1h1.4v1.4h-1.4v-1.4ZM482.6,363.1h1.4v1.4h-1.4v-1.4ZM476.9,363.1h1.4v1.4h-1.4v-1.4ZM471.2,363.1h1.4v1.4h-1.4v-1.4ZM465.4,363.1h1.4v1.4h-1.4v-1.4ZM459.7,363.1h1.4v1.4h-1.4v-1.4ZM454,363.1h1.4v1.4h-1.4v-1.4ZM448.3,363.1h1.4v1.4h-1.4v-1.4ZM442.6,363.1h1.4v1.4h-1.4v-1.4ZM436.9,363.1h1.4v1.4h-1.4v-1.4ZM431.2,363.1h1.4v1.4h-1.4v-1.4ZM425.5,363.1h1.4v1.4h-1.4v-1.4ZM419.8,363.1h1.4v1.4h-1.4v-1.4ZM414.1,363.1h1.4v1.4h-1.4v-1.4ZM408.4,363.1h1.4v1.4h-1.4v-1.4ZM402.7,363.1h1.4v1.4h-1.4v-1.4ZM397,363.1h1.4v1.4h-1.4v-1.4ZM391.2,363.1h1.4v1.4h-1.4v-1.4ZM385.5,363.1h1.4v1.4h-1.4v-1.4ZM379.8,363.1h1.4v1.4h-1.4v-1.4ZM374.1,363.1h1.4v1.4h-1.4v-1.4ZM368.4,363.1h1.4v1.4h-1.4v-1.4ZM362.7,363.1h1.4v1.4h-1.4v-1.4ZM357,363.1h1.4v1.4h-1.4v-1.4ZM351.3,363.1h1.4v1.4h-1.4v-1.4ZM345.6,363.1h1.4v1.4h-1.4v-1.4ZM339.9,363.1h1.4v1.4h-1.4v-1.4ZM334.2,363.1h1.4v1.4h-1.4v-1.4ZM328.5,363.1h1.4v1.4h-1.4v-1.4ZM322.8,363.1h1.4v1.4h-1.4v-1.4ZM317,363.1h1.4v1.4h-1.4v-1.4ZM311.3,363.1h1.4v1.4h-1.4v-1.4ZM305.6,363.1h1.4v1.4h-1.4v-1.4Z"/>
  </g>
</svg>